<?xml version="1.0" encoding="UTF-8" standalone="no"?>
<!DOCTYPE svg PUBLIC "-//W3C//DTD SVG 1.1//EN"
 "http://www.w3.org/Graphics/SVG/1.1/DTD/svg11.dtd">
<!-- Generated by graphviz version 2.40.1 (20161225.0304)
 -->
<!-- Title: RabbitMQ Pages: 1 -->
<svg width="3247pt" height="1268pt"
 viewBox="0.00 0.00 3247.46 1268.00" xmlns="http://www.w3.org/2000/svg" xmlns:xlink="http://www.w3.org/1999/xlink">
<g id="graph0" class="graph" transform="scale(1 1) rotate(0) translate(4 1264)">
<title>RabbitMQ</title>
<polygon fill="#ffffff" stroke="transparent" points="-4,4 -4,-1264 3243.4577,-1264 3243.4577,4 -4,4"/>
<!-- pre_boot -->
<g id="node1" class="node">
<title>pre_boot</title>
<polygon fill="none" stroke="#000000" points="1238.4708,-36 1158.5016,-36 1158.5016,0 1238.4708,0 1238.4708,-36"/>
<text text-anchor="middle" x="1198.4862" y="-12.6" font-family="Yahei Mono" font-size="18.00" fill="#000000">pre_boot</text>
</g>
<!-- codec_correctness_check -->
<g id="node2" class="node">
<title>codec_correctness_check</title>
<polygon fill="none" stroke="#000000" points="1024.8752,-180 826.0972,-180 826.0972,-144 1024.8752,-144 1024.8752,-180"/>
<text text-anchor="middle" x="925.4862" y="-156.6" font-family="Yahei Mono" font-size="18.00" fill="#000000">codec_correctness_check</text>
</g>
<!-- codec_correctness_check&#45;&gt;pre_boot -->
<g id="edge2" class="edge">
<title>codec_correctness_check&#45;&gt;pre_boot</title>
<path fill="none" stroke="#000000" d="M1022.8459,-143.9492C1082.4904,-132.146 1149.4669,-117.2546 1160.4862,-108 1179.0669,-92.395 1188.7478,-66.1243 1193.6732,-45.9822"/>
<polygon fill="#000000" stroke="#000000" points="1197.1177,-46.6139 1195.8374,-36.0968 1190.2797,-45.1169 1197.1177,-46.6139"/>
</g>
<!-- rabbit_alarm -->
<g id="node3" class="node">
<title>rabbit_alarm</title>
<polygon fill="none" stroke="#000000" points="1151.45,-108 1043.5224,-108 1043.5224,-72 1151.45,-72 1151.45,-108"/>
<text text-anchor="middle" x="1097.4862" y="-84.6" font-family="Yahei Mono" font-size="18.00" fill="#000000">rabbit_alarm</text>
</g>
<!-- rabbit_alarm&#45;&gt;pre_boot -->
<g id="edge4" class="edge">
<title>rabbit_alarm&#45;&gt;pre_boot</title>
<path fill="none" stroke="#000000" d="M1122.9728,-71.8314C1135.6521,-62.7927 1151.1458,-51.7476 1164.7917,-42.0198"/>
<polygon fill="#000000" stroke="#000000" points="1166.8967,-44.8176 1173.0078,-36.1628 1162.8333,-39.1176 1166.8967,-44.8176"/>
</g>
<!-- database -->
<g id="node4" class="node">
<title>database</title>
<polygon fill="none" stroke="#000000" points="1123.4494,-252 1045.523,-252 1045.523,-216 1123.4494,-216 1123.4494,-252"/>
<text text-anchor="middle" x="1084.4862" y="-228.6" font-family="Yahei Mono" font-size="18.00" fill="#000000">database</text>
</g>
<!-- file_handle_cache -->
<g id="node6" class="node">
<title>file_handle_cache</title>
<polygon fill="none" stroke="#000000" points="1189.9164,-180 1043.056,-180 1043.056,-144 1189.9164,-144 1189.9164,-180"/>
<text text-anchor="middle" x="1116.4862" y="-156.6" font-family="Yahei Mono" font-size="18.00" fill="#000000">file_handle_cache</text>
</g>
<!-- database&#45;&gt;file_handle_cache -->
<g id="edge6" class="edge">
<title>database&#45;&gt;file_handle_cache</title>
<path fill="none" stroke="#000000" d="M1092.5612,-215.8314C1096.0964,-207.8771 1100.3222,-198.369 1104.2318,-189.5723"/>
<polygon fill="#000000" stroke="#000000" points="1107.4394,-190.9729 1108.3025,-180.4133 1101.0427,-188.1299 1107.4394,-190.9729"/>
</g>
<!-- database_sync -->
<g id="node5" class="node">
<title>database_sync</title>
<polygon fill="none" stroke="#000000" points="1137.4398,-324 1017.5326,-324 1017.5326,-288 1137.4398,-288 1137.4398,-324"/>
<text text-anchor="middle" x="1077.4862" y="-300.6" font-family="Yahei Mono" font-size="18.00" fill="#000000">database_sync</text>
</g>
<!-- database_sync&#45;&gt;database -->
<g id="edge8" class="edge">
<title>database_sync&#45;&gt;database</title>
<path fill="none" stroke="#000000" d="M1079.2526,-287.8314C1080.0012,-280.131 1080.8915,-270.9743 1081.7235,-262.4166"/>
<polygon fill="#000000" stroke="#000000" points="1085.2118,-262.7051 1082.696,-252.4133 1078.2447,-262.0276 1085.2118,-262.7051"/>
</g>
<!-- file_handle_cache&#45;&gt;rabbit_alarm -->
<g id="edge10" class="edge">
<title>file_handle_cache&#45;&gt;rabbit_alarm</title>
<path fill="none" stroke="#000000" d="M1111.6917,-143.8314C1109.6373,-136.0463 1107.1902,-126.7729 1104.9106,-118.1347"/>
<polygon fill="#000000" stroke="#000000" points="1108.281,-117.1892 1102.3453,-108.4133 1101.5127,-118.9753 1108.281,-117.1892"/>
</g>
<!-- worker_pool -->
<g id="node7" class="node">
<title>worker_pool</title>
<polygon fill="none" stroke="#000000" points="1249.4572,-252 1141.5152,-252 1141.5152,-216 1249.4572,-216 1249.4572,-252"/>
<text text-anchor="middle" x="1195.4862" y="-228.6" font-family="Yahei Mono" font-size="18.00" fill="#000000">worker_pool</text>
</g>
<!-- worker_pool&#45;&gt;pre_boot -->
<g id="edge12" class="edge">
<title>worker_pool&#45;&gt;pre_boot</title>
<path fill="none" stroke="#000000" d="M1196.7674,-215.5162C1197.4261,-205.0924 1198.1579,-191.8262 1198.4862,-180 1199.7832,-133.2712 1199.396,-78.9312 1198.9649,-46.5615"/>
<polygon fill="#000000" stroke="#000000" points="1202.4633,-46.4174 1198.8193,-36.4689 1195.464,-46.5184 1202.4633,-46.4174"/>
</g>
<!-- worker_pool&#45;&gt;file_handle_cache -->
<g id="edge9" class="edge">
<title>worker_pool&#45;&gt;file_handle_cache</title>
<path fill="none" stroke="#000000" d="M1175.5512,-215.8314C1166.0079,-207.1337 1154.4263,-196.5783 1144.0556,-187.1265"/>
<polygon fill="#000000" stroke="#000000" points="1146.1634,-184.3121 1136.4149,-180.1628 1141.4482,-189.4857 1146.1634,-184.3121"/>
</g>
<!-- external_infrastructure -->
<g id="node8" class="node">
<title>external_infrastructure</title>
<polygon fill="none" stroke="#000000" points="1274.3996,-396 1094.5728,-396 1094.5728,-360 1274.3996,-360 1274.3996,-396"/>
<text text-anchor="middle" x="1184.4862" y="-372.6" font-family="Yahei Mono" font-size="18.00" fill="#000000">external_infrastructure</text>
</g>
<!-- external_infrastructure&#45;&gt;codec_correctness_check -->
<g id="edge1" class="edge">
<title>external_infrastructure&#45;&gt;codec_correctness_check</title>
<path fill="none" stroke="#000000" d="M1094.4558,-364.9135C1064.5534,-357.0043 1032.7379,-344.3239 1008.4862,-324 966.1604,-288.5292 942.944,-225.9978 932.4706,-189.8781"/>
<polygon fill="#000000" stroke="#000000" points="935.7783,-188.7078 929.7355,-180.0052 929.0324,-190.5767 935.7783,-188.7078"/>
</g>
<!-- external_infrastructure&#45;&gt;rabbit_alarm -->
<g id="edge3" class="edge">
<title>external_infrastructure&#45;&gt;rabbit_alarm</title>
<path fill="none" stroke="#000000" d="M1202.8986,-359.9406C1230.6426,-330.436 1277.9594,-269.786 1258.4862,-216 1240.7748,-167.0803 1190.5614,-132.8723 1150.8731,-112.5672"/>
<polygon fill="#000000" stroke="#000000" points="1152.3246,-109.3804 1141.8105,-108.075 1149.2157,-115.6521 1152.3246,-109.3804"/>
</g>
<!-- external_infrastructure&#45;&gt;database -->
<g id="edge5" class="edge">
<title>external_infrastructure&#45;&gt;database</title>
<path fill="none" stroke="#000000" d="M1179.5059,-359.8614C1173.675,-340.7542 1162.704,-310.3893 1146.4862,-288 1138.6235,-277.1453 1128.1876,-266.9885 1118.1239,-258.4779"/>
<polygon fill="#000000" stroke="#000000" points="1120.1553,-255.6187 1110.189,-252.0237 1115.7382,-261.0491 1120.1553,-255.6187"/>
</g>
<!-- external_infrastructure&#45;&gt;database_sync -->
<g id="edge7" class="edge">
<title>external_infrastructure&#45;&gt;database_sync</title>
<path fill="none" stroke="#000000" d="M1157.4856,-359.8314C1144.0531,-350.7927 1127.6389,-339.7476 1113.1823,-330.0198"/>
<polygon fill="#000000" stroke="#000000" points="1114.7287,-326.8418 1104.4782,-324.1628 1110.8208,-332.6494 1114.7287,-326.8418"/>
</g>
<!-- external_infrastructure&#45;&gt;worker_pool -->
<g id="edge11" class="edge">
<title>external_infrastructure&#45;&gt;worker_pool</title>
<path fill="none" stroke="#000000" d="M1185.8794,-359.7623C1187.7556,-335.201 1191.1131,-291.2474 1193.3203,-262.3541"/>
<polygon fill="#000000" stroke="#000000" points="1196.8324,-262.3272 1194.1044,-252.0896 1189.8528,-261.794 1196.8324,-262.3272"/>
</g>
<!-- rabbit_registry -->
<g id="node9" class="node">
<title>rabbit_registry</title>
<polygon fill="none" stroke="#000000" points="1897.4522,-468 1775.5202,-468 1775.5202,-432 1897.4522,-432 1897.4522,-468"/>
<text text-anchor="middle" x="1836.4862" y="-444.6" font-family="Yahei Mono" font-size="18.00" fill="#000000">rabbit_registry</text>
</g>
<!-- rabbit_registry&#45;&gt;external_infrastructure -->
<g id="edge14" class="edge">
<title>rabbit_registry&#45;&gt;external_infrastructure</title>
<path fill="none" stroke="#000000" d="M1775.4407,-443.2588C1662.8685,-430.8275 1421.604,-404.1848 1284.7116,-389.0678"/>
<polygon fill="#000000" stroke="#000000" points="1284.9579,-385.5738 1274.6341,-387.955 1284.1895,-392.5315 1284.9579,-385.5738"/>
</g>
<!-- rabbit_event -->
<g id="node10" class="node">
<title>rabbit_event</title>
<polygon fill="none" stroke="#000000" points="2536.4556,-468 2430.5168,-468 2430.5168,-432 2536.4556,-432 2536.4556,-468"/>
<text text-anchor="middle" x="2483.4862" y="-444.6" font-family="Yahei Mono" font-size="18.00" fill="#000000">rabbit_event</text>
</g>
<!-- rabbit_event&#45;&gt;external_infrastructure -->
<g id="edge16" class="edge">
<title>rabbit_event&#45;&gt;external_infrastructure</title>
<path fill="none" stroke="#000000" d="M2430.1421,-447.0433C2233.2123,-436.128 1545.0864,-397.9871 1285.0413,-383.5735"/>
<polygon fill="#000000" stroke="#000000" points="1285.0287,-380.0675 1274.8503,-383.0086 1284.6412,-387.0568 1285.0287,-380.0675"/>
</g>
<!-- kernel_ready -->
<g id="node11" class="node">
<title>kernel_ready</title>
<polygon fill="none" stroke="#000000" points="1891.4336,-612 1781.5388,-612 1781.5388,-576 1891.4336,-576 1891.4336,-612"/>
<text text-anchor="middle" x="1836.4862" y="-588.6" font-family="Yahei Mono" font-size="18.00" fill="#000000">kernel_ready</text>
</g>
<!-- kernel_ready&#45;&gt;external_infrastructure -->
<g id="edge17" class="edge">
<title>kernel_ready&#45;&gt;external_infrastructure</title>
<path fill="none" stroke="#000000" d="M1781.1239,-593.1273C1506.6763,-588.6733 304.1515,-567.6049 277.4862,-540 162.5417,-421.0051 825.5838,-388.5408 1084.3577,-380.4621"/>
<polygon fill="#000000" stroke="#000000" points="1084.6217,-383.9557 1094.5098,-380.1512 1084.4074,-376.959 1084.6217,-383.9557"/>
</g>
<!-- kernel_ready&#45;&gt;rabbit_registry -->
<g id="edge13" class="edge">
<title>kernel_ready&#45;&gt;rabbit_registry</title>
<path fill="none" stroke="#000000" d="M1781.4037,-591.6918C1622.1129,-584.753 1170.8686,-563.1291 1149.4862,-540 1138.6248,-528.2514 1138.6248,-515.7486 1149.4862,-504 1170.1794,-481.6164 1593.4696,-460.6426 1765.1146,-453.0245"/>
<polygon fill="#000000" stroke="#000000" points="1765.4774,-456.512 1775.3134,-452.5744 1765.1688,-449.5188 1765.4774,-456.512"/>
</g>
<!-- kernel_ready&#45;&gt;rabbit_event -->
<g id="edge15" class="edge">
<title>kernel_ready&#45;&gt;rabbit_event</title>
<path fill="none" stroke="#000000" d="M1891.7386,-593.4031C2111.0121,-590.7688 2909.767,-578.549 2946.4862,-540 2957.5216,-528.4147 2957.1244,-515.9511 2946.4862,-504 2920.3771,-474.6688 2667.712,-458.7732 2547.0378,-452.8005"/>
<polygon fill="#000000" stroke="#000000" points="2546.9901,-449.2941 2536.8316,-452.3035 2546.6495,-456.2859 2546.9901,-449.2941"/>
</g>
<!-- rabbit_auth_mechanism_amqplain -->
<g id="node26" class="node">
<title>rabbit_auth_mechanism_amqplain</title>
<polygon fill="none" stroke="#000000" points="1422.9298,-540 1158.0426,-540 1158.0426,-504 1422.9298,-504 1422.9298,-540"/>
<text text-anchor="middle" x="1290.4862" y="-516.6" font-family="Yahei Mono" font-size="18.00" fill="#000000">rabbit_auth_mechanism_amqplain</text>
</g>
<!-- kernel_ready&#45;&gt;rabbit_auth_mechanism_amqplain -->
<g id="edge42" class="edge">
<title>kernel_ready&#45;&gt;rabbit_auth_mechanism_amqplain</title>
<path fill="none" stroke="#a52a2a" d="M1781.3811,-586.7334C1700.5588,-576.0755 1547.1294,-555.8431 1433.2211,-540.8222"/>
<polygon fill="#a52a2a" stroke="#a52a2a" points="1423.0186,-539.4768 1433.5211,-536.3229 1427.9756,-540.1305 1432.9327,-540.7842 1432.9327,-540.7842 1432.9327,-540.7842 1427.9756,-540.1305 1432.3444,-545.2456 1423.0186,-539.4768 1423.0186,-539.4768"/>
</g>
<!-- rabbit_auth_mechanism_cr_demo -->
<g id="node27" class="node">
<title>rabbit_auth_mechanism_cr_demo</title>
<polygon fill="none" stroke="#000000" points="1701.9176,-540 1441.0548,-540 1441.0548,-504 1701.9176,-504 1701.9176,-540"/>
<text text-anchor="middle" x="1571.4862" y="-516.6" font-family="Yahei Mono" font-size="18.00" fill="#000000">rabbit_auth_mechanism_cr_demo</text>
</g>
<!-- kernel_ready&#45;&gt;rabbit_auth_mechanism_cr_demo -->
<g id="edge44" class="edge">
<title>kernel_ready&#45;&gt;rabbit_auth_mechanism_cr_demo</title>
<path fill="none" stroke="#a52a2a" d="M1781.2561,-578.9941C1742.5566,-568.4795 1690.3392,-554.2921 1647.6847,-542.703"/>
<polygon fill="#a52a2a" stroke="#a52a2a" points="1637.902,-540.0451 1648.7321,-538.3245 1642.7271,-541.3561 1647.5522,-542.6671 1647.5522,-542.6671 1647.5522,-542.6671 1642.7271,-541.3561 1646.3723,-547.0096 1637.902,-540.0451 1637.902,-540.0451"/>
</g>
<!-- rabbit_auth_mechanism_plain -->
<g id="node28" class="node">
<title>rabbit_auth_mechanism_plain</title>
<polygon fill="none" stroke="#000000" points="1953.4374,-540 1719.535,-540 1719.535,-504 1953.4374,-504 1953.4374,-540"/>
<text text-anchor="middle" x="1836.4862" y="-516.6" font-family="Yahei Mono" font-size="18.00" fill="#000000">rabbit_auth_mechanism_plain</text>
</g>
<!-- kernel_ready&#45;&gt;rabbit_auth_mechanism_plain -->
<g id="edge46" class="edge">
<title>kernel_ready&#45;&gt;rabbit_auth_mechanism_plain</title>
<path fill="none" stroke="#a52a2a" d="M1836.4862,-575.8314C1836.4862,-568.131 1836.4862,-558.9743 1836.4862,-550.4166"/>
<polygon fill="#a52a2a" stroke="#a52a2a" points="1836.4862,-540.4133 1840.9863,-550.4132 1836.4862,-545.4133 1836.4863,-550.4133 1836.4863,-550.4133 1836.4863,-550.4133 1836.4862,-545.4133 1831.9863,-550.4133 1836.4862,-540.4133 1836.4862,-540.4133"/>
</g>
<!-- rabbit_exchange_type_direct -->
<g id="node29" class="node">
<title>rabbit_exchange_type_direct</title>
<polygon fill="none" stroke="#000000" points="2195.9032,-540 1971.0692,-540 1971.0692,-504 2195.9032,-504 2195.9032,-540"/>
<text text-anchor="middle" x="2083.4862" y="-516.6" font-family="Yahei Mono" font-size="18.00" fill="#000000">rabbit_exchange_type_direct</text>
</g>
<!-- kernel_ready&#45;&gt;rabbit_exchange_type_direct -->
<g id="edge48" class="edge">
<title>kernel_ready&#45;&gt;rabbit_exchange_type_direct</title>
<path fill="none" stroke="#a52a2a" d="M1891.6104,-577.9314C1926.9806,-567.6211 1973.2772,-554.1257 2011.5322,-542.9744"/>
<polygon fill="#a52a2a" stroke="#a52a2a" points="2021.5816,-540.0451 2013.2405,-547.1638 2016.7814,-541.4443 2011.9812,-542.8436 2011.9812,-542.8436 2011.9812,-542.8436 2016.7814,-541.4443 2010.7218,-538.5234 2021.5816,-540.0451 2021.5816,-540.0451"/>
</g>
<!-- rabbit_exchange_type_fanout -->
<g id="node30" class="node">
<title>rabbit_exchange_type_fanout</title>
<polygon fill="none" stroke="#000000" points="2443.4108,-540 2213.5616,-540 2213.5616,-504 2443.4108,-504 2443.4108,-540"/>
<text text-anchor="middle" x="2328.4862" y="-516.6" font-family="Yahei Mono" font-size="18.00" fill="#000000">rabbit_exchange_type_fanout</text>
</g>
<!-- kernel_ready&#45;&gt;rabbit_exchange_type_fanout -->
<g id="edge50" class="edge">
<title>kernel_ready&#45;&gt;rabbit_exchange_type_fanout</title>
<path fill="none" stroke="#a52a2a" d="M1891.4927,-585.9503C1966.4785,-574.9767 2102.9441,-555.0062 2203.4927,-540.2917"/>
<polygon fill="#a52a2a" stroke="#a52a2a" points="2213.4143,-538.8398 2204.1714,-544.7404 2208.467,-539.5638 2203.5197,-540.2879 2203.5197,-540.2879 2203.5197,-540.2879 2208.467,-539.5638 2202.8681,-535.8353 2213.4143,-538.8398 2213.4143,-538.8398"/>
</g>
<!-- rabbit_exchange_type_headers -->
<g id="node31" class="node">
<title>rabbit_exchange_type_headers</title>
<polygon fill="none" stroke="#000000" points="2699.8892,-540 2461.0832,-540 2461.0832,-504 2699.8892,-504 2699.8892,-540"/>
<text text-anchor="middle" x="2580.4862" y="-516.6" font-family="Yahei Mono" font-size="18.00" fill="#000000">rabbit_exchange_type_headers</text>
</g>
<!-- kernel_ready&#45;&gt;rabbit_exchange_type_headers -->
<g id="edge52" class="edge">
<title>kernel_ready&#45;&gt;rabbit_exchange_type_headers</title>
<path fill="none" stroke="#a52a2a" d="M1891.8017,-590.1253C1998.0862,-582.4682 2238.4297,-564.1271 2450.8433,-540.1582"/>
<polygon fill="#a52a2a" stroke="#a52a2a" points="2460.9365,-539.0126 2451.5078,-544.6118 2455.9684,-539.5765 2451.0003,-540.1405 2451.0003,-540.1405 2451.0003,-540.1405 2455.9684,-539.5765 2450.4927,-535.6692 2460.9365,-539.0126 2460.9365,-539.0126"/>
</g>
<!-- rabbit_exchange_type_topic -->
<g id="node32" class="node">
<title>rabbit_exchange_type_topic</title>
<polygon fill="none" stroke="#000000" points="2937.4208,-540 2717.5516,-540 2717.5516,-504 2937.4208,-504 2937.4208,-540"/>
<text text-anchor="middle" x="2827.4862" y="-516.6" font-family="Yahei Mono" font-size="18.00" fill="#000000">rabbit_exchange_type_topic</text>
</g>
<!-- kernel_ready&#45;&gt;rabbit_exchange_type_topic -->
<g id="edge54" class="edge">
<title>kernel_ready&#45;&gt;rabbit_exchange_type_topic</title>
<path fill="none" stroke="#a52a2a" d="M1891.4665,-592.2813C2027.8237,-587.6567 2392.6587,-573.0711 2707.0883,-540.0955"/>
<polygon fill="#a52a2a" stroke="#a52a2a" points="2717.3131,-539.0148 2707.8416,-544.5411 2712.3408,-539.5404 2707.3685,-540.066 2707.3685,-540.066 2707.3685,-540.066 2712.3408,-539.5404 2706.8955,-535.5909 2717.3131,-539.0148 2717.3131,-539.0148"/>
</g>
<!-- rabbit_mirror_queue_mode_all -->
<g id="node34" class="node">
<title>rabbit_mirror_queue_mode_all</title>
<polygon fill="none" stroke="#000000" points="526.9214,-540 286.051,-540 286.051,-504 526.9214,-504 526.9214,-540"/>
<text text-anchor="middle" x="406.4862" y="-516.6" font-family="Yahei Mono" font-size="18.00" fill="#000000">rabbit_mirror_queue_mode_all</text>
</g>
<!-- kernel_ready&#45;&gt;rabbit_mirror_queue_mode_all -->
<g id="edge58" class="edge">
<title>kernel_ready&#45;&gt;rabbit_mirror_queue_mode_all</title>
<path fill="none" stroke="#a52a2a" d="M1781.2426,-593.6014C1602.758,-591.9113 1025.3568,-583.2996 537.2586,-540.0134"/>
<polygon fill="#a52a2a" stroke="#a52a2a" points="527.1927,-539.1146 537.5533,-535.5219 532.1729,-539.5593 537.1531,-540.004 537.1531,-540.004 537.1531,-540.004 532.1729,-539.5593 536.7528,-544.4862 527.1927,-539.1146 527.1927,-539.1146"/>
</g>
<!-- rabbit_mirror_queue_mode_exactly -->
<g id="node35" class="node">
<title>rabbit_mirror_queue_mode_exactly</title>
<polygon fill="none" stroke="#000000" points="819.9018,-540 545.0706,-540 545.0706,-504 819.9018,-504 819.9018,-540"/>
<text text-anchor="middle" x="682.4862" y="-516.6" font-family="Yahei Mono" font-size="18.00" fill="#000000">rabbit_mirror_queue_mode_exactly</text>
</g>
<!-- kernel_ready&#45;&gt;rabbit_mirror_queue_mode_exactly -->
<g id="edge60" class="edge">
<title>kernel_ready&#45;&gt;rabbit_mirror_queue_mode_exactly</title>
<path fill="none" stroke="#a52a2a" d="M1781.2675,-592.3637C1630.6195,-587.616 1199.6913,-572.1435 830.2583,-540.0308"/>
<polygon fill="#a52a2a" stroke="#a52a2a" points="820.1711,-539.1485 830.5252,-535.5371 825.1521,-539.5842 830.1331,-540.02 830.1331,-540.02 830.1331,-540.02 825.1521,-539.5842 829.7409,-544.5028 820.1711,-539.1485 820.1711,-539.1485"/>
</g>
<!-- rabbit_mirror_queue_mode_nodes -->
<g id="node36" class="node">
<title>rabbit_mirror_queue_mode_nodes</title>
<polygon fill="none" stroke="#000000" points="1102.9172,-540 838.0552,-540 838.0552,-504 1102.9172,-504 1102.9172,-540"/>
<text text-anchor="middle" x="970.4862" y="-516.6" font-family="Yahei Mono" font-size="18.00" fill="#000000">rabbit_mirror_queue_mode_nodes</text>
</g>
<!-- kernel_ready&#45;&gt;rabbit_mirror_queue_mode_nodes -->
<g id="edge62" class="edge">
<title>kernel_ready&#45;&gt;rabbit_mirror_queue_mode_nodes</title>
<path fill="none" stroke="#a52a2a" d="M1781.308,-590.7643C1660.603,-583.4879 1364.0955,-564.5348 1116.4862,-540 1115.3743,-539.8898 1114.2578,-539.7782 1113.1371,-539.6651"/>
<polygon fill="#a52a2a" stroke="#a52a2a" points="1102.9518,-538.6116 1113.3618,-535.1644 1107.9253,-539.1261 1112.8988,-539.6405 1112.8988,-539.6405 1112.8988,-539.6405 1107.9253,-539.1261 1112.4358,-544.1167 1102.9518,-538.6116 1102.9518,-538.6116"/>
</g>
<!-- rabbit_priority_queue -->
<g id="node39" class="node">
<title>rabbit_priority_queue</title>
<polygon fill="none" stroke="#000000" points="2620.9444,-396 2448.028,-396 2448.028,-360 2620.9444,-360 2620.9444,-396"/>
<text text-anchor="middle" x="2534.4862" y="-372.6" font-family="Yahei Mono" font-size="18.00" fill="#000000">rabbit_priority_queue</text>
</g>
<!-- kernel_ready&#45;&gt;rabbit_priority_queue -->
<g id="edge68" class="edge">
<title>kernel_ready&#45;&gt;rabbit_priority_queue</title>
<path fill="none" stroke="#a52a2a" d="M1891.5034,-593.4504C2112.7001,-590.9765 2927.0944,-579.2247 2964.4862,-540 3067.9679,-431.4459 2787.5678,-394.9632 2631.2975,-383.2408"/>
<polygon fill="#a52a2a" stroke="#a52a2a" points="2621.1891,-382.5039 2631.4898,-378.7429 2626.1759,-382.8675 2631.1626,-383.231 2631.1626,-383.231 2631.1626,-383.231 2626.1759,-382.8675 2630.8354,-387.7191 2621.1891,-382.5039 2621.1891,-382.5039"/>
</g>
<!-- rabbit_memory_monitor -->
<g id="node12" class="node">
<title>rabbit_memory_monitor</title>
<polygon fill="none" stroke="#000000" points="192.9586,-684 .0138,-684 .0138,-648 192.9586,-648 192.9586,-684"/>
<text text-anchor="middle" x="96.4862" y="-660.6" font-family="Yahei Mono" font-size="18.00" fill="#000000">rabbit_memory_monitor</text>
</g>
<!-- rabbit_memory_monitor&#45;&gt;rabbit_alarm -->
<g id="edge19" class="edge">
<title>rabbit_memory_monitor&#45;&gt;rabbit_alarm</title>
<path fill="none" stroke="#000000" d="M105.6054,-647.8786C118.2277,-621.076 139.4862,-568.9635 139.4862,-522 139.4862,-522 139.4862,-522 139.4862,-234 139.4862,-184.133 162.6213,-167.7189 206.4862,-144 278.6429,-104.9829 840.9237,-93.5672 1033.2384,-90.7857"/>
<polygon fill="#000000" stroke="#000000" points="1033.523,-94.2821 1043.4724,-90.6408 1033.4238,-87.2828 1033.523,-94.2821"/>
</g>
<!-- guid_generator -->
<g id="node13" class="node">
<title>guid_generator</title>
<polygon fill="none" stroke="#000000" points="1784.9456,-684 1660.0268,-684 1660.0268,-648 1784.9456,-648 1784.9456,-684"/>
<text text-anchor="middle" x="1722.4862" y="-660.6" font-family="Yahei Mono" font-size="18.00" fill="#000000">guid_generator</text>
</g>
<!-- guid_generator&#45;&gt;kernel_ready -->
<g id="edge21" class="edge">
<title>guid_generator&#45;&gt;kernel_ready</title>
<path fill="none" stroke="#000000" d="M1751.2532,-647.8314C1765.6995,-638.7074 1783.3827,-627.539 1798.8902,-617.7449"/>
<polygon fill="#000000" stroke="#000000" points="1801.1425,-620.462 1807.7284,-612.1628 1797.4045,-614.5436 1801.1425,-620.462"/>
</g>
<!-- delegate_sup -->
<g id="node14" class="node">
<title>delegate_sup</title>
<polygon fill="none" stroke="#000000" points="2088.4516,-756 1978.5208,-756 1978.5208,-720 2088.4516,-720 2088.4516,-756"/>
<text text-anchor="middle" x="2033.4862" y="-732.6" font-family="Yahei Mono" font-size="18.00" fill="#000000">delegate_sup</text>
</g>
<!-- delegate_sup&#45;&gt;kernel_ready -->
<g id="edge23" class="edge">
<title>delegate_sup&#45;&gt;kernel_ready</title>
<path fill="none" stroke="#000000" d="M2023.4867,-719.8609C2011.6816,-699.8951 1990.3463,-667.986 1964.4862,-648 1945.7014,-633.4821 1922.4382,-622.1451 1900.9178,-613.6891"/>
<polygon fill="#000000" stroke="#000000" points="1902.09,-610.3905 1891.4985,-610.1234 1899.6117,-616.9371 1902.09,-610.3905"/>
</g>
<!-- rabbit_node_monitor -->
<g id="node15" class="node">
<title>rabbit_node_monitor</title>
<polygon fill="none" stroke="#000000" points="1694.462,-756 1526.5104,-756 1526.5104,-720 1694.462,-720 1694.462,-756"/>
<text text-anchor="middle" x="1610.4862" y="-732.6" font-family="Yahei Mono" font-size="18.00" fill="#000000">rabbit_node_monitor</text>
</g>
<!-- rabbit_node_monitor&#45;&gt;rabbit_alarm -->
<g id="edge25" class="edge">
<title>rabbit_node_monitor&#45;&gt;rabbit_alarm</title>
<path fill="none" stroke="#000000" d="M1526.4068,-733.7255C1225.569,-717.8836 220.4862,-660.0167 220.4862,-594 220.4862,-594 220.4862,-594 220.4862,-234 220.4862,-151.6303 830.6787,-106.4834 1033.1042,-93.7726"/>
<polygon fill="#000000" stroke="#000000" points="1033.5244,-97.2533 1043.2878,-93.139 1033.0897,-90.2668 1033.5244,-97.2533"/>
</g>
<!-- rabbit_node_monitor&#45;&gt;guid_generator -->
<g id="edge26" class="edge">
<title>rabbit_node_monitor&#45;&gt;guid_generator</title>
<path fill="none" stroke="#000000" d="M1638.7485,-719.8314C1652.9414,-710.7074 1670.3144,-699.539 1685.5498,-689.7449"/>
<polygon fill="#000000" stroke="#000000" points="1687.7138,-692.5146 1694.2329,-684.1628 1683.9284,-686.6263 1687.7138,-692.5146"/>
</g>
<!-- rabbit_epmd_monitor -->
<g id="node16" class="node">
<title>rabbit_epmd_monitor</title>
<polygon fill="none" stroke="#000000" points="1922.9642,-756 1750.0082,-756 1750.0082,-720 1922.9642,-720 1922.9642,-756"/>
<text text-anchor="middle" x="1836.4862" y="-732.6" font-family="Yahei Mono" font-size="18.00" fill="#000000">rabbit_epmd_monitor</text>
</g>
<!-- rabbit_epmd_monitor&#45;&gt;kernel_ready -->
<g id="edge28" class="edge">
<title>rabbit_epmd_monitor&#45;&gt;kernel_ready</title>
<path fill="none" stroke="#000000" d="M1836.4862,-719.7623C1836.4862,-695.201 1836.4862,-651.2474 1836.4862,-622.3541"/>
<polygon fill="#000000" stroke="#000000" points="1839.9863,-622.0896 1836.4862,-612.0896 1832.9863,-622.0897 1839.9863,-622.0896"/>
</g>
<!-- core_initialized -->
<g id="node17" class="node">
<title>core_initialized</title>
<polygon fill="none" stroke="#000000" points="2014.4426,-828 1886.5298,-828 1886.5298,-792 2014.4426,-792 2014.4426,-828"/>
<text text-anchor="middle" x="1950.4862" y="-804.6" font-family="Yahei Mono" font-size="18.00" fill="#000000">core_initialized</text>
</g>
<!-- core_initialized&#45;&gt;kernel_ready -->
<g id="edge29" class="edge">
<title>core_initialized&#45;&gt;kernel_ready</title>
<path fill="none" stroke="#000000" d="M1948.9781,-791.6848C1946.9047,-772.9655 1942.1352,-743.4017 1931.4862,-720 1914.0536,-681.6908 1883.3299,-643.9831 1861.5464,-619.9521"/>
<polygon fill="#000000" stroke="#000000" points="1863.8853,-617.3255 1854.5337,-612.3457 1858.7387,-622.0703 1863.8853,-617.3255"/>
</g>
<!-- core_initialized&#45;&gt;rabbit_memory_monitor -->
<g id="edge18" class="edge">
<title>core_initialized&#45;&gt;rabbit_memory_monitor</title>
<path fill="none" stroke="#000000" d="M1886.1518,-807.4466C1657.082,-797.9099 859.9568,-760.9133 206.4862,-684 205.3811,-683.8699 204.2702,-683.7366 203.1543,-683.6003"/>
<polygon fill="#000000" stroke="#000000" points="203.3611,-680.0982 192.997,-682.2973 202.4703,-687.0413 203.3611,-680.0982"/>
</g>
<!-- core_initialized&#45;&gt;guid_generator -->
<g id="edge20" class="edge">
<title>core_initialized&#45;&gt;guid_generator</title>
<path fill="none" stroke="#000000" d="M1886.3607,-800.9598C1832.5462,-792.062 1761.3642,-776.7889 1741.4862,-756 1725.8633,-739.6612 1721.7085,-713.8727 1721.116,-694.0812"/>
<polygon fill="#000000" stroke="#000000" points="1724.6161,-694.0738 1721.0959,-684.0809 1717.6161,-694.088 1724.6161,-694.0738"/>
</g>
<!-- core_initialized&#45;&gt;delegate_sup -->
<g id="edge22" class="edge">
<title>core_initialized&#45;&gt;delegate_sup</title>
<path fill="none" stroke="#000000" d="M1971.4306,-791.8314C1981.5553,-783.0485 1993.8639,-772.3712 2004.841,-762.8489"/>
<polygon fill="#000000" stroke="#000000" points="2007.2881,-765.3595 2012.5485,-756.1628 2002.7011,-760.0718 2007.2881,-765.3595"/>
</g>
<!-- core_initialized&#45;&gt;rabbit_node_monitor -->
<g id="edge24" class="edge">
<title>core_initialized&#45;&gt;rabbit_node_monitor</title>
<path fill="none" stroke="#000000" d="M1886.1351,-796.3727C1834.8138,-785.5047 1762.2096,-770.1297 1704.3973,-757.887"/>
<polygon fill="#000000" stroke="#000000" points="1705.0274,-754.4429 1694.5192,-755.7952 1703.5772,-761.2911 1705.0274,-754.4429"/>
</g>
<!-- core_initialized&#45;&gt;rabbit_epmd_monitor -->
<g id="edge27" class="edge">
<title>core_initialized&#45;&gt;rabbit_epmd_monitor</title>
<path fill="none" stroke="#000000" d="M1921.7192,-791.8314C1907.2729,-782.7074 1889.5897,-771.539 1874.0822,-761.7449"/>
<polygon fill="#000000" stroke="#000000" points="1875.5679,-758.5436 1865.244,-756.1628 1871.8299,-764.462 1875.5679,-758.5436"/>
</g>
<!-- empty_db_check -->
<g id="node18" class="node">
<title>empty_db_check</title>
<polygon fill="none" stroke="#000000" points="2364.9514,-900 2226.021,-900 2226.021,-864 2364.9514,-864 2364.9514,-900"/>
<text text-anchor="middle" x="2295.4862" y="-876.6" font-family="Yahei Mono" font-size="18.00" fill="#000000">empty_db_check</text>
</g>
<!-- empty_db_check&#45;&gt;core_initialized -->
<g id="edge31" class="edge">
<title>empty_db_check&#45;&gt;core_initialized</title>
<path fill="none" stroke="#000000" d="M2225.6703,-867.4297C2167.3195,-855.2522 2084.3224,-837.931 2024.7599,-825.5006"/>
<polygon fill="#000000" stroke="#000000" points="2025.1714,-822.0111 2014.6672,-823.3943 2023.7413,-828.8635 2025.1714,-822.0111"/>
</g>
<!-- recovery -->
<g id="node19" class="node">
<title>recovery</title>
<polygon fill="none" stroke="#000000" points="2882.9412,-900 2804.0312,-900 2804.0312,-864 2882.9412,-864 2882.9412,-900"/>
<text text-anchor="middle" x="2843.4862" y="-876.6" font-family="Yahei Mono" font-size="18.00" fill="#000000">recovery</text>
</g>
<!-- recovery&#45;&gt;core_initialized -->
<g id="edge33" class="edge">
<title>recovery&#45;&gt;core_initialized</title>
<path fill="none" stroke="#000000" d="M2803.9629,-878.8133C2666.2329,-867.7086 2205.968,-830.5988 2024.7287,-815.986"/>
<polygon fill="#000000" stroke="#000000" points="2025.0017,-812.4967 2014.7527,-815.1816 2024.4391,-819.4741 2025.0017,-812.4967"/>
</g>
<!-- rabbit_mirror_queue_misc -->
<g id="node33" class="node">
<title>rabbit_mirror_queue_misc</title>
<polygon fill="none" stroke="#000000" points="3239.4292,-612 3031.5432,-612 3031.5432,-576 3239.4292,-576 3239.4292,-612"/>
<text text-anchor="middle" x="3135.4862" y="-588.6" font-family="Yahei Mono" font-size="18.00" fill="#000000">rabbit_mirror_queue_misc</text>
</g>
<!-- recovery&#45;&gt;rabbit_mirror_queue_misc -->
<g id="edge56" class="edge">
<title>recovery&#45;&gt;rabbit_mirror_queue_misc</title>
<path fill="none" stroke="#a52a2a" d="M2883.2044,-874.9275C2932.2628,-865.4998 3012.0008,-847.6986 3034.4862,-828 3097.5857,-772.7211 3122.6191,-670.9794 3131.3609,-621.9122"/>
<polygon fill="#a52a2a" stroke="#a52a2a" points="3133.0307,-612.0012 3135.8067,-622.6099 3132.2,-616.9317 3131.3692,-621.8622 3131.3692,-621.8622 3131.3692,-621.8622 3132.2,-616.9317 3126.9318,-621.1146 3133.0307,-612.0012 3133.0307,-612.0012"/>
</g>
<!-- rabbit_policies -->
<g id="node37" class="node">
<title>rabbit_policies</title>
<polygon fill="none" stroke="#000000" points="2960.9602,-684 2838.0122,-684 2838.0122,-648 2960.9602,-648 2960.9602,-684"/>
<text text-anchor="middle" x="2899.4862" y="-660.6" font-family="Yahei Mono" font-size="18.00" fill="#000000">rabbit_policies</text>
</g>
<!-- recovery&#45;&gt;rabbit_policies -->
<g id="edge64" class="edge">
<title>recovery&#45;&gt;rabbit_policies</title>
<path fill="none" stroke="#a52a2a" d="M2848.1644,-863.9555C2857.9438,-826.235 2880.6072,-738.8188 2892.2684,-693.8399"/>
<polygon fill="#a52a2a" stroke="#a52a2a" points="2894.7819,-684.1451 2896.6282,-694.9544 2893.5271,-688.9851 2892.2722,-693.825 2892.2722,-693.825 2892.2722,-693.825 2893.5271,-688.9851 2887.9162,-692.6957 2894.7819,-684.1451 2894.7819,-684.1451"/>
</g>
<!-- rabbit_policy -->
<g id="node38" class="node">
<title>rabbit_policy</title>
<polygon fill="none" stroke="#000000" points="3025.4676,-828 2913.5048,-828 2913.5048,-792 3025.4676,-792 3025.4676,-828"/>
<text text-anchor="middle" x="2969.4862" y="-804.6" font-family="Yahei Mono" font-size="18.00" fill="#000000">rabbit_policy</text>
</g>
<!-- recovery&#45;&gt;rabbit_policy -->
<g id="edge66" class="edge">
<title>recovery&#45;&gt;rabbit_policy</title>
<path fill="none" stroke="#a52a2a" d="M2875.2813,-863.8314C2891.5467,-854.5368 2911.5248,-843.1208 2928.8913,-833.1971"/>
<polygon fill="#a52a2a" stroke="#a52a2a" points="2937.7013,-828.1628 2931.2515,-837.0314 2933.36,-830.6435 2929.0188,-833.1243 2929.0188,-833.1243 2929.0188,-833.1243 2933.36,-830.6435 2926.7862,-829.2172 2937.7013,-828.1628 2937.7013,-828.1628"/>
</g>
<!-- mirrored_queues -->
<g id="node20" class="node">
<title>mirrored_queues</title>
<polygon fill="none" stroke="#000000" points="2898.438,-972 2760.5344,-972 2760.5344,-936 2898.438,-936 2898.438,-972"/>
<text text-anchor="middle" x="2829.4862" y="-948.6" font-family="Yahei Mono" font-size="18.00" fill="#000000">mirrored_queues</text>
</g>
<!-- mirrored_queues&#45;&gt;recovery -->
<g id="edge36" class="edge">
<title>mirrored_queues&#45;&gt;recovery</title>
<path fill="none" stroke="#000000" d="M2833.019,-935.8314C2834.5163,-928.131 2836.2967,-918.9743 2837.9607,-910.4166"/>
<polygon fill="#000000" stroke="#000000" points="2841.4327,-910.8975 2839.9058,-900.4133 2834.5614,-909.5614 2841.4327,-910.8975"/>
</g>
<!-- routing_ready -->
<g id="node21" class="node">
<title>routing_ready</title>
<polygon fill="none" stroke="#000000" points="2512.9554,-1044 2396.017,-1044 2396.017,-1008 2512.9554,-1008 2512.9554,-1044"/>
<text text-anchor="middle" x="2454.4862" y="-1020.6" font-family="Yahei Mono" font-size="18.00" fill="#000000">routing_ready</text>
</g>
<!-- routing_ready&#45;&gt;core_initialized -->
<g id="edge35" class="edge">
<title>routing_ready&#45;&gt;core_initialized</title>
<path fill="none" stroke="#000000" d="M2451.1769,-1007.7759C2443.886,-973.3607 2422.9825,-899.1167 2373.4862,-864 2345.6457,-844.2477 2138.3667,-824.9281 2024.6501,-815.67"/>
<polygon fill="#000000" stroke="#000000" points="2024.8664,-812.1762 2014.6171,-814.8595 2024.3027,-819.1534 2024.8664,-812.1762"/>
</g>
<!-- routing_ready&#45;&gt;empty_db_check -->
<g id="edge30" class="edge">
<title>routing_ready&#45;&gt;empty_db_check</title>
<path fill="none" stroke="#000000" d="M2434.3487,-1007.7623C2406.1538,-982.2272 2354.8149,-935.7316 2323.08,-906.9906"/>
<polygon fill="#000000" stroke="#000000" points="2325.2217,-904.2082 2315.4602,-900.0896 2320.5227,-909.3967 2325.2217,-904.2082"/>
</g>
<!-- routing_ready&#45;&gt;recovery -->
<g id="edge32" class="edge">
<title>routing_ready&#45;&gt;recovery</title>
<path fill="none" stroke="#000000" d="M2503.3594,-1007.9081C2577.9599,-980.2925 2719.438,-927.9202 2794.253,-900.2252"/>
<polygon fill="#000000" stroke="#000000" points="2795.7519,-903.4025 2803.9149,-896.6485 2793.3217,-896.8378 2795.7519,-903.4025"/>
</g>
<!-- routing_ready&#45;&gt;mirrored_queues -->
<g id="edge34" class="edge">
<title>routing_ready&#45;&gt;mirrored_queues</title>
<path fill="none" stroke="#000000" d="M2513.08,-1014.75C2576.8897,-1002.4985 2679.3051,-982.8348 2750.2556,-969.2123"/>
<polygon fill="#000000" stroke="#000000" points="2751.3264,-972.5707 2760.487,-967.2478 2750.0064,-965.6963 2751.3264,-972.5707"/>
</g>
<!-- log_relay -->
<g id="node22" class="node">
<title>log_relay</title>
<polygon fill="none" stroke="#000000" points="2496.4632,-1116 2412.5092,-1116 2412.5092,-1080 2496.4632,-1080 2496.4632,-1116"/>
<text text-anchor="middle" x="2454.4862" y="-1092.6" font-family="Yahei Mono" font-size="18.00" fill="#000000">log_relay</text>
</g>
<!-- log_relay&#45;&gt;routing_ready -->
<g id="edge38" class="edge">
<title>log_relay&#45;&gt;routing_ready</title>
<path fill="none" stroke="#000000" d="M2454.4862,-1079.8314C2454.4862,-1072.131 2454.4862,-1062.9743 2454.4862,-1054.4166"/>
<polygon fill="#000000" stroke="#000000" points="2457.9863,-1054.4132 2454.4862,-1044.4133 2450.9863,-1054.4133 2457.9863,-1054.4132"/>
</g>
<!-- direct_client -->
<g id="node23" class="node">
<title>direct_client</title>
<polygon fill="none" stroke="#000000" points="2507.4502,-1188 2401.5222,-1188 2401.5222,-1152 2507.4502,-1152 2507.4502,-1188"/>
<text text-anchor="middle" x="2454.4862" y="-1164.6" font-family="Yahei Mono" font-size="18.00" fill="#000000">direct_client</text>
</g>
<!-- direct_client&#45;&gt;log_relay -->
<g id="edge39" class="edge">
<title>direct_client&#45;&gt;log_relay</title>
<path fill="none" stroke="#000000" d="M2454.4862,-1151.8314C2454.4862,-1144.131 2454.4862,-1134.9743 2454.4862,-1126.4166"/>
<polygon fill="#000000" stroke="#000000" points="2457.9863,-1126.4132 2454.4862,-1116.4133 2450.9863,-1126.4133 2457.9863,-1126.4132"/>
</g>
<!-- notify_cluster -->
<g id="node24" class="node">
<title>notify_cluster</title>
<polygon fill="none" stroke="#000000" points="2633.46,-1260 2517.5124,-1260 2517.5124,-1224 2633.46,-1224 2633.46,-1260"/>
<text text-anchor="middle" x="2575.4862" y="-1236.6" font-family="Yahei Mono" font-size="18.00" fill="#000000">notify_cluster</text>
</g>
<!-- networking -->
<g id="node40" class="node">
<title>networking</title>
<polygon fill="none" stroke="#000000" points="2624.4672,-1188 2526.5052,-1188 2526.5052,-1152 2624.4672,-1152 2624.4672,-1188"/>
<text text-anchor="middle" x="2575.4862" y="-1164.6" font-family="Yahei Mono" font-size="18.00" fill="#000000">networking</text>
</g>
<!-- notify_cluster&#45;&gt;networking -->
<g id="edge40" class="edge">
<title>notify_cluster&#45;&gt;networking</title>
<path fill="none" stroke="#000000" d="M2575.4862,-1223.8314C2575.4862,-1216.131 2575.4862,-1206.9743 2575.4862,-1198.4166"/>
<polygon fill="#000000" stroke="#000000" points="2578.9863,-1198.4132 2575.4862,-1188.4133 2571.9863,-1198.4133 2578.9863,-1198.4132"/>
</g>
<!-- background_gc -->
<g id="node25" class="node">
<title>background_gc</title>
<polygon fill="none" stroke="#000000" points="2640.949,-1116 2514.0234,-1116 2514.0234,-1080 2640.949,-1080 2640.949,-1116"/>
<text text-anchor="middle" x="2577.4862" y="-1092.6" font-family="Yahei Mono" font-size="18.00" fill="#000000">background_gc</text>
</g>
<!-- rabbit_auth_mechanism_amqplain&#45;&gt;rabbit_registry -->
<g id="edge43" class="edge">
<title>rabbit_auth_mechanism_amqplain&#45;&gt;rabbit_registry</title>
<path fill="none" stroke="#a52a2a" d="M1423.006,-504.5249C1530.7882,-490.3118 1678.7256,-470.8036 1765.3109,-459.3858"/>
<polygon fill="#a52a2a" stroke="#a52a2a" points="1775.3008,-458.0684 1765.9749,-463.8372 1770.3437,-458.7221 1765.3866,-459.3759 1765.3866,-459.3759 1765.3866,-459.3759 1770.3437,-458.7221 1764.7982,-454.9145 1775.3008,-458.0684 1775.3008,-458.0684"/>
</g>
<!-- rabbit_auth_mechanism_cr_demo&#45;&gt;rabbit_registry -->
<g id="edge45" class="edge">
<title>rabbit_auth_mechanism_cr_demo&#45;&gt;rabbit_registry</title>
<path fill="none" stroke="#a52a2a" d="M1638.0148,-503.9243C1676.883,-493.3639 1725.9197,-480.0407 1765.5257,-469.2798"/>
<polygon fill="#a52a2a" stroke="#a52a2a" points="1775.3799,-466.6025 1766.9096,-473.567 1770.5548,-467.9135 1765.7297,-469.2245 1765.7297,-469.2245 1765.7297,-469.2245 1770.5548,-467.9135 1764.5498,-464.8819 1775.3799,-466.6025 1775.3799,-466.6025"/>
</g>
<!-- rabbit_auth_mechanism_plain&#45;&gt;rabbit_registry -->
<g id="edge47" class="edge">
<title>rabbit_auth_mechanism_plain&#45;&gt;rabbit_registry</title>
<path fill="none" stroke="#a52a2a" d="M1836.4862,-503.8314C1836.4862,-496.131 1836.4862,-486.9743 1836.4862,-478.4166"/>
<polygon fill="#a52a2a" stroke="#a52a2a" points="1836.4862,-468.4133 1840.9863,-478.4132 1836.4862,-473.4133 1836.4863,-478.4133 1836.4863,-478.4133 1836.4863,-478.4133 1836.4862,-473.4133 1831.9863,-478.4133 1836.4862,-468.4133 1836.4862,-468.4133"/>
</g>
<!-- rabbit_exchange_type_direct&#45;&gt;rabbit_registry -->
<g id="edge49" class="edge">
<title>rabbit_exchange_type_direct&#45;&gt;rabbit_registry</title>
<path fill="none" stroke="#a52a2a" d="M2021.4765,-503.9243C1986.8617,-493.8341 1943.5943,-481.2218 1907.609,-470.7322"/>
<polygon fill="#a52a2a" stroke="#a52a2a" points="1897.6657,-467.8337 1908.5255,-466.3121 1902.4659,-469.233 1907.2661,-470.6323 1907.2661,-470.6323 1907.2661,-470.6323 1902.4659,-469.233 1906.0068,-474.9525 1897.6657,-467.8337 1897.6657,-467.8337"/>
</g>
<!-- rabbit_exchange_type_fanout&#45;&gt;rabbit_registry -->
<g id="edge51" class="edge">
<title>rabbit_exchange_type_fanout&#45;&gt;rabbit_registry</title>
<path fill="none" stroke="#a52a2a" d="M2213.4447,-505.1647C2118.8067,-491.3152 1987.6702,-472.1245 1907.6391,-460.4126"/>
<polygon fill="#a52a2a" stroke="#a52a2a" points="1897.6576,-458.9519 1908.2039,-455.9474 1902.6049,-459.676 1907.5522,-460.4 1907.5522,-460.4 1907.5522,-460.4 1902.6049,-459.676 1906.9006,-464.8526 1897.6576,-458.9519 1897.6576,-458.9519"/>
</g>
<!-- rabbit_exchange_type_headers&#45;&gt;rabbit_registry -->
<g id="edge53" class="edge">
<title>rabbit_exchange_type_headers&#45;&gt;rabbit_registry</title>
<path fill="none" stroke="#a52a2a" d="M2460.9365,-504.9874C2458.0933,-504.6477 2455.2732,-504.3179 2452.4862,-504 2255.7639,-481.5609 2022.7682,-463.4259 1907.8715,-455.0401"/>
<polygon fill="#a52a2a" stroke="#a52a2a" points="1897.7954,-454.3076 1908.0954,-450.5445 1902.7822,-454.6701 1907.7691,-455.0327 1907.7691,-455.0327 1907.7691,-455.0327 1902.7822,-454.6701 1907.4427,-459.5209 1897.7954,-454.3076 1897.7954,-454.3076"/>
</g>
<!-- rabbit_exchange_type_topic&#45;&gt;rabbit_registry -->
<g id="edge55" class="edge">
<title>rabbit_exchange_type_topic&#45;&gt;rabbit_registry</title>
<path fill="none" stroke="#a52a2a" d="M2717.3131,-504.9852C2714.3416,-504.6389 2711.395,-504.3095 2708.4862,-504 2412.2436,-472.4846 2057.277,-457.5417 1908.0774,-452.2927"/>
<polygon fill="#a52a2a" stroke="#a52a2a" points="1897.6942,-451.9314 1907.8447,-447.7819 1902.6912,-452.1053 1907.6882,-452.2792 1907.6882,-452.2792 1907.6882,-452.2792 1902.6912,-452.1053 1907.5316,-456.7765 1897.6942,-451.9314 1897.6942,-451.9314"/>
</g>
<!-- rabbit_mirror_queue_misc&#45;&gt;rabbit_registry -->
<g id="edge57" class="edge">
<title>rabbit_mirror_queue_misc&#45;&gt;rabbit_registry</title>
<path fill="none" stroke="#a52a2a" d="M3118.793,-575.8006C3097.6326,-554.1512 3058.8933,-519.051 3017.4862,-504 2965.2491,-485.0124 2155.6756,-459.4902 1907.956,-452.0906"/>
<polygon fill="#a52a2a" stroke="#a52a2a" points="1897.6332,-451.7831 1907.7629,-447.583 1902.631,-451.932 1907.6288,-452.081 1907.6288,-452.081 1907.6288,-452.081 1902.631,-451.932 1907.4947,-456.579 1897.6332,-451.7831 1897.6332,-451.7831"/>
</g>
<!-- rabbit_mirror_queue_mode_all&#45;&gt;rabbit_registry -->
<g id="edge59" class="edge">
<title>rabbit_mirror_queue_mode_all&#45;&gt;rabbit_registry</title>
<path fill="none" stroke="#a52a2a" d="M527.1927,-504.8854C530.3206,-504.5712 533.4226,-504.2751 536.4862,-504 1003.9628,-462.0249 1568.9923,-452.6141 1765.2555,-450.5581"/>
<polygon fill="#a52a2a" stroke="#a52a2a" points="1775.4336,-450.4547 1765.4799,-455.0562 1770.4339,-450.5056 1765.4341,-450.5564 1765.4341,-450.5564 1765.4341,-450.5564 1770.4339,-450.5056 1765.3884,-446.0567 1775.4336,-450.4547 1775.4336,-450.4547"/>
</g>
<!-- rabbit_mirror_queue_mode_exactly&#45;&gt;rabbit_registry -->
<g id="edge61" class="edge">
<title>rabbit_mirror_queue_mode_exactly&#45;&gt;rabbit_registry</title>
<path fill="none" stroke="#a52a2a" d="M820.1711,-504.8515C823.3043,-504.5547 826.4127,-504.2703 829.4862,-504 1179.897,-473.1872 1600.5582,-457.4781 1765.3572,-452.1446"/>
<polygon fill="#a52a2a" stroke="#a52a2a" points="1775.369,-451.8232 1765.5186,-456.6418 1770.3715,-451.9836 1765.3741,-452.1441 1765.3741,-452.1441 1765.3741,-452.1441 1770.3715,-451.9836 1765.2297,-447.6464 1775.369,-451.8232 1775.369,-451.8232"/>
</g>
<!-- rabbit_mirror_queue_mode_nodes&#45;&gt;rabbit_registry -->
<g id="edge63" class="edge">
<title>rabbit_mirror_queue_mode_nodes&#45;&gt;rabbit_registry</title>
<path fill="none" stroke="#a52a2a" d="M1102.9518,-505.3884C1107.5169,-504.9053 1112.0386,-504.4407 1116.4862,-504 1353.6196,-480.5033 1635.6011,-462.1258 1765.0605,-454.2215"/>
<polygon fill="#a52a2a" stroke="#a52a2a" points="1775.2387,-453.6025 1765.5304,-458.7013 1770.248,-453.9061 1765.2572,-454.2096 1765.2572,-454.2096 1765.2572,-454.2096 1770.248,-453.9061 1764.984,-449.7179 1775.2387,-453.6025 1775.2387,-453.6025"/>
</g>
<!-- rabbit_policies&#45;&gt;rabbit_registry -->
<g id="edge65" class="edge">
<title>rabbit_policies&#45;&gt;rabbit_registry</title>
<path fill="none" stroke="#a52a2a" d="M2914.4988,-647.805C2939.9139,-614.745 2985.0645,-544.5007 2946.4862,-504 2928.5198,-485.1383 2150.4881,-459.6577 1907.926,-452.1595"/>
<polygon fill="#a52a2a" stroke="#a52a2a" points="1897.8091,-451.8476 1907.9431,-447.6579 1902.8067,-452.0017 1907.8043,-452.1558 1907.8043,-452.1558 1907.8043,-452.1558 1902.8067,-452.0017 1907.6656,-456.6537 1897.8091,-451.8476 1897.8091,-451.8476"/>
</g>
<!-- rabbit_policy&#45;&gt;rabbit_registry -->
<g id="edge67" class="edge">
<title>rabbit_policy&#45;&gt;rabbit_registry</title>
<path fill="none" stroke="#a52a2a" d="M2976.6967,-791.6867C2986.6771,-764.6448 3003.4862,-712.2373 3003.4862,-666 3003.4862,-666 3003.4862,-666 3003.4862,-594 3003.4862,-550.9187 3002.5742,-528.9967 2967.4862,-504 2945.8329,-488.5742 2152.687,-460.6437 1907.7753,-452.3702"/>
<polygon fill="#a52a2a" stroke="#a52a2a" points="1897.5652,-452.0259 1907.7112,-447.8655 1902.5623,-452.1945 1907.5595,-452.363 1907.5595,-452.363 1907.5595,-452.363 1902.5623,-452.1945 1907.4078,-456.8604 1897.5652,-452.0259 1897.5652,-452.0259"/>
</g>
<!-- rabbit_priority_queue&#45;&gt;pre_boot -->
<g id="edge69" class="edge">
<title>rabbit_priority_queue&#45;&gt;pre_boot</title>
<path fill="none" stroke="#a52a2a" d="M2447.8781,-375.4398C2279.744,-368.1045 1925.4862,-340.0643 1925.4862,-234 1925.4862,-234 1925.4862,-234 1925.4862,-162 1925.4862,-92.9107 1413.7348,-38.3885 1248.9515,-22.6233"/>
<polygon fill="#a52a2a" stroke="#a52a2a" points="1238.6084,-21.6412 1248.9891,-18.1067 1243.586,-22.1139 1248.5637,-22.5866 1248.5637,-22.5866 1248.5637,-22.5866 1243.586,-22.1139 1248.1382,-27.0664 1238.6084,-21.6412 1238.6084,-21.6412"/>
</g>
<!-- networking&#45;&gt;log_relay -->
<g id="edge37" class="edge">
<title>networking&#45;&gt;log_relay</title>
<path fill="none" stroke="#000000" d="M2544.9528,-1151.8314C2529.4761,-1142.6221 2510.4993,-1131.3301 2493.9299,-1121.4706"/>
<polygon fill="#000000" stroke="#000000" points="2495.3933,-1118.2687 2485.0098,-1116.1628 2491.8138,-1124.2843 2495.3933,-1118.2687"/>
</g>
<!-- networking&#45;&gt;background_gc -->
<g id="edge41" class="edge">
<title>networking&#45;&gt;background_gc</title>
<path fill="none" stroke="#000000" d="M2575.9909,-1151.8314C2576.2048,-1144.131 2576.4591,-1134.9743 2576.6968,-1126.4166"/>
<polygon fill="#000000" stroke="#000000" points="2580.1956,-1126.5066 2576.9747,-1116.4133 2573.1983,-1126.3122 2580.1956,-1126.5066"/>
</g>
</g>
</svg>
